<svg width="40" height="36" viewBox="0 0 40 36" fill="none" xmlns="http://www.w3.org/2000/svg">
<path d="M23.8703 20.2579C26.7208 20.2579 29.0316 17.9471 29.0316 15.0966C29.0316 12.2461 26.7208 9.93526 23.8703 9.93526C21.0198 9.93526 18.709 12.2461 18.709 15.0966C18.709 17.9471 21.0198 20.2579 23.8703 20.2579Z" fill="#FFDA00"/>
<path d="M20.0006 26.7096C18.5773 26.7096 17.4199 27.867 17.4199 29.2903C17.4199 30.7136 18.5773 31.871 20.0006 31.871C21.4239 31.871 22.5812 30.7136 22.5812 29.2903C22.5812 27.867 21.4239 26.7096 20.0006 26.7096ZM20.0006 30.5806C19.289 30.5806 18.7102 30.0019 18.7102 29.2903C18.7102 28.5787 19.289 28 20.0006 28C20.7122 28 21.2909 28.5787 21.2909 29.2903C21.2909 30.0019 20.7123 30.5806 20.0006 30.5806Z" fill="#414140"/>
<path d="M39.075 20.6625C38.4962 20.2612 37.7556 20.1702 37.0949 20.416L37.0208 20.4438L30.042 3.31338L12.4407 9.59986L8.81744 0.903122H1.93542C0.868339 0.903122 0 1.77146 0 2.83854C0 3.90563 0.868339 4.7741 1.93542 4.7741H6.02579L15.1484 26.1083C14.5465 27.0232 14.1936 28.1155 14.1936 29.2903C14.1936 32.4922 16.7988 35.0969 20 35.0969C23.2013 35.0969 25.8064 32.4924 25.8064 29.2903C25.8064 29.2264 25.7987 29.1638 25.7968 29.1006L38.5846 24.4509C39.431 24.1425 40 23.3309 40 22.4296C40.0001 21.7244 39.6543 21.0644 39.075 20.6625ZM21.66 7.67723L23.6549 12.1656L21.6278 12.9766L19.5995 8.4133L21.66 7.67723ZM18.3807 8.84823L20.953 14.6361L25.3775 12.8663L22.8782 7.24245L29.3131 4.94436L35.8125 20.8973L24.1731 25.2626C23.1163 24.1677 21.6376 23.4839 20.0001 23.4839C19.4189 23.4839 18.8589 23.5723 18.3291 23.7317L12.9374 10.792L18.3807 8.84823ZM1.93542 3.48378C1.57991 3.48378 1.29033 3.19474 1.29033 2.83854C1.29033 2.48234 1.58005 2.19331 1.93542 2.19331H7.95667L17.1431 24.2412C16.7599 24.4586 16.4064 24.7199 16.0837 25.0154L6.87748 3.48378H1.93542ZM20 33.8064C17.5096 33.8064 15.4839 31.78 15.4839 29.2902C15.4839 26.8004 17.5098 24.774 20 24.774C22.4902 24.774 24.5161 26.8004 24.5161 29.2902C24.5161 31.78 22.4904 33.8064 20 33.8064ZM38.144 23.238L25.6053 27.7974C25.4666 27.2774 25.2582 26.7865 24.9891 26.3342L37.5479 21.6245C37.8163 21.5232 38.1041 21.5594 38.3401 21.7226C38.5749 21.8858 38.7098 22.1439 38.7098 22.4296C38.7098 22.7902 38.482 23.1148 38.144 23.238Z" fill="#414140"/>
</svg>
